Belleza-Regular.otf.ufo
<glyph name="quotesingle" format="1">
  <advance width="181"/>
  <unicode hex="0027"/>
  <outline>
    <contour>
      <point x="50" y="607" type="line" name="hr00"/>
      <point x="78" y="431" type="line"/>
      <point x="102" y="431" type="line"/>
      <point x="131" y="607" type="line"/>
      <point x="131" y="677" type="line"/>
      <point x="50" y="677" type="line"/>
    </contour>
  </outline>
</glyph>
<glyph name="plus" format="1">
  <advance width="564"/>
  <unicode hex="002B"/>
  <outline>
    <contour>
      <point x="253" y="477" type="line" name="hr00"/>
      <point x="253" y="282" type="line"/>
      <point x="59" y="282" type="line"/>
      <point x="59" y="224" type="line"/>
      <point x="253" y="224" type="line"/>
      <point x="253" y="29" type="line"/>
      <point x="311" y="29" type="line"/>
      <point x="311" y="224" type="line"/>
      <point x="505" y="224" type="line"/>
      <point x="505" y="282" type="line"/>
      <point x="311" y="282" type="line"/>
      <point x="311" y="477" type="line"/>
    </contour>
  </outline>
</glyph>
<glyph name="period" format="1">
  <advance width="250"/>
  <unicode hex="002E"/>
  <outline>
    <contour>
      <point x="70" y="44" type="curve" name="hr00"/>
      <point x="70" y="13"/>
      <point x="94" y="-11"/>
      <point x="125" y="-11" type="curve"/>
      <point x="156" y="-11"/>
      <point x="181" y="13"/>
      <point x="181" y="44" type="curve"/>
      <point x="181" y="75"/>
      <point x="156" y="100"/>
      <point x="125" y="100" type="curve"/>
      <point x="94" y="100"/>
      <point x="70" y="75"/>
    </contour>
  </outline>
</glyph>
<glyph name="two" format="1">
  <advance width="500"/>
  <unicode hex="0032"/>
  <outline>
    <contour>
      <point x="431" y="408" type="curve" name="hr00"/>
      <point x="431" y="492" smooth="yes"/>
      <point x="385" y="580" smooth="yes"/>
      <point x="222" y="580" type="curve" smooth="yes"/>
      <point x="180" y="580"/>
      <point x="108" y="568"/>
      <point x="79" y="559" type="curve"/>
      <point x="99" y="496" type="line"/>
      <point x="155" y="513"/>
      <point x="219" y="524"/>
      <point x="262" y="524" type="curve"/>
      <point x="320" y="501" smooth="yes"/>
      <point x="344" y="458" smooth="yes"/>
      <point x="344" y="407" type="curve" smooth="yes"/>
      <point x="344" y="288"/>
      <point x="177" y="122"/>
      <point x="56" y="48" type="curve"/>
      <point x="56" y="0" type="line"/>
      <point x="444" y="0" type="line"/>
      <point x="444" y="67" type="line"/>
      <point x="140" y="52" type="line"/>
      <point x="140" y="58" type="line"/>
      <point x="246" y="130" smooth="yes"/>
      <point x="431" y="297" smooth="yes"/>
    </contour>
  </outline>
</glyph>
<glyph name="nine" format="1">
  <advance width="500"/>
  <unicode hex="0039"/>
  <outline>
    <contour>
      <point x="213" y="186" type="curve" name="hr00"/>
      <point x="270" y="186"/>
      <point x="320" y="206"/>
      <point x="357" y="254" type="curve"/>
      <point x="363" y="254" type="line"/>
      <point x="358" y="108"/>
      <point x="301" y="-20"/>
      <point x="217" y="-52" type="curve"/>
      <point x="164" y="-52"/>
      <point x="120" y="-38"/>
      <point x="63" y="-20" type="curve"/>
      <point x="43" y="-84" type="line"/>
      <point x="71" y="-93" smooth="yes"/>
      <point x="133" y="-107" smooth="yes"/>
      <point x="175" y="-107" type="curve" smooth="yes"/>
      <point x="301" y="-107" smooth="yes"/>
      <point x="452" y="27" smooth="yes"/>
      <point x="452" y="274" type="curve" smooth="yes"/>
      <point x="452" y="441" smooth="yes"/>
      <point x="384" y="580" smooth="yes"/>
      <point x="244" y="580" type="curve" smooth="yes"/>
      <point x="149" y="580" smooth="yes"/>
      <point x="33" y="530" smooth="yes"/>
      <point x="33" y="377" type="curve" smooth="yes"/>
      <point x="33" y="260" smooth="yes"/>
      <point x="110" y="186" smooth="yes"/>
    </contour>
    <contour>
      <point x="245" y="536" type="curve"/>
      <point x="320" y="536" smooth="yes"/>
      <point x="363" y="414" smooth="yes"/>
      <point x="363" y="297" type="curve" smooth="yes"/>
      <point x="363" y="289"/>
      <point x="312" y="240"/>
      <point x="235" y="232" type="curve"/>
      <point x="153" y="248" smooth="yes"/>
      <point x="128" y="313" smooth="yes"/>
      <point x="128" y="381" type="curve" smooth="yes"/>
      <point x="128" y="467" smooth="yes"/>
      <point x="180" y="536" smooth="yes"/>
    </contour>
  </outline>
</glyph>
<glyph name="semicolon" format="1">
  <advance width="211"/>
  <unicode hex="003B"/>
  <outline>
    <contour>
      <point x="155" y="108" type="curve" name="hr00"/>
      <point x="116" y="104"/>
      <point x="69" y="79"/>
      <point x="50" y="51" type="curve"/>
      <point x="50" y="15"/>
      <point x="84" y="-4"/>
      <point x="112" y="-4" type="curve"/>
      <point x="112" y="-47"/>
      <point x="84" y="-92"/>
      <point x="45" y="-123" type="curve"/>
      <point x="57" y="-142" type="line"/>
      <point x="118" y="-108" smooth="yes"/>
      <point x="169" y="-55" smooth="yes"/>
      <point x="169" y="28" type="curve" smooth="yes"/>
      <point x="169" y="52"/>
      <point x="165" y="79"/>
    </contour>
    <contour>
      <point x="50" y="403" type="curve"/>
      <point x="50" y="372"/>
      <point x="74" y="348"/>
      <point x="105" y="348" type="curve"/>
      <point x="136" y="348"/>
      <point x="161" y="372"/>
      <point x="161" y="403" type="curve"/>
      <point x="161" y="434"/>
      <point x="136" y="459"/>
      <point x="105" y="459" type="curve"/>
      <point x="74" y="459"/>
      <point x="50" y="434"/>
    </contour>
  </outline>
</glyph>
<glyph name="greater" format="1">
  <advance width="564"/>
  <unicode hex="003E"/>
  <outline>
    <contour>
      <point x="434" y="253" type="line" name="hr00"/>
      <point x="57" y="82" type="line"/>
      <point x="57" y="22" type="line"/>
      <point x="507" y="226" type="line"/>
      <point x="507" y="280" type="line"/>
      <point x="57" y="484" type="line"/>
      <point x="57" y="424" type="line"/>
    </contour>
  </outline>
</glyph>
<glyph name="question" format="1">
  <advance width="444"/>
  <unicode hex="003F"/>
  <outline>
    <contour>
      <point x="210" y="98" type="curve" name="hr00"/>
      <point x="181" y="98" smooth="yes"/>
      <point x="156" y="75" smooth="yes"/>
      <point x="156" y="44" type="curve" smooth="yes"/>
      <point x="156" y="6" smooth="yes"/>
      <point x="189" y="-8" smooth="yes"/>
      <point x="210" y="-8" type="curve" smooth="yes"/>
      <point x="234" y="-8" smooth="yes"/>
      <point x="265" y="8" smooth="yes"/>
      <point x="265" y="44" type="curve" smooth="yes"/>
      <point x="265" y="73" smooth="yes"/>
      <point x="241" y="98" smooth="yes"/>
    </contour>
    <contour>
      <point x="104" y="577" type="line"/>
      <point x="145" y="589"/>
      <point x="209" y="599"/>
      <point x="247" y="599" type="curve"/>
      <point x="308" y="575" smooth="yes"/>
      <point x="333" y="530" smooth="yes"/>
      <point x="333" y="474" type="curve" smooth="yes"/>
      <point x="333" y="385"/>
      <point x="269" y="272"/>
      <point x="187" y="183" type="curve"/>
      <point x="216" y="160" type="line"/>
      <point x="311" y="256" smooth="yes"/>
      <point x="416" y="390" smooth="yes"/>
      <point x="416" y="483" type="curve" smooth="yes"/>
      <point x="416" y="567" smooth="yes"/>
      <point x="370" y="655" smooth="yes"/>
      <point x="207" y="655" type="curve" smooth="yes"/>
      <point x="173" y="655"/>
      <point x="131" y="647"/>
      <point x="104" y="640" type="curve"/>
    </contour>
  </outline>
</glyph>
<glyph name="at" format="1">
  <advance width="971"/>
  <unicode hex="0040"/>
  <outline>
    <contour>
      <point x="660" y="40" type="curve"/>
      <point x="735" y="40" smooth="yes"/>
      <point x="872" y="114" smooth="yes"/>
      <point x="872" y="317" type="curve" smooth="yes"/>
      <point x="872" y="495" smooth="yes"/>
      <point x="708" y="659" smooth="yes"/>
      <point x="495" y="659" type="curve" smooth="yes"/>
      <point x="265" y="659" smooth="yes"/>
      <point x="79" y="481" smooth="yes"/>
      <point x="79" y="261" type="curve" smooth="yes"/>
      <point x="79" y="41" smooth="yes"/>
      <point x="265" y="-137" smooth="yes"/>
      <point x="495" y="-137" type="curve" smooth="yes"/>
      <point x="575" y="-137"/>
      <point x="650" y="-121"/>
      <point x="714" y="-84" type="curve"/>
      <point x="687" y="-47" type="line"/>
      <point x="634" y="-82" smooth="yes"/>
      <point x="571" y="-103" smooth="yes"/>
      <point x="504" y="-103" type="curve" smooth="yes"/>
      <point x="316" y="-103" smooth="yes"/>
      <point x="169" y="60" smooth="yes"/>
      <point x="169" y="262" type="curve" smooth="yes"/>
      <point x="169" y="464" smooth="yes"/>
      <point x="316" y="627" smooth="yes"/>
      <point x="504" y="627" type="curve" smooth="yes"/>
      <point x="671" y="627" smooth="yes"/>
      <point x="833" y="488" smooth="yes"/>
      <point x="833" y="318" type="curve" smooth="yes"/>
      <point x="833" y="149" smooth="yes"/>
      <point x="734" y="81" smooth="yes"/>
      <point x="685" y="81" type="curve" smooth="yes"/>
      <point x="645" y="81" smooth="yes"/>
      <point x="628" y="106" smooth="yes"/>
      <point x="628" y="146" type="curve" smooth="yes"/>
      <point x="628" y="153" smooth="yes"/>
      <point x="629" y="162" smooth="yes"/>
      <point x="630" y="170" type="curve" smooth="yes"/>
      <point x="676" y="454" type="line"/>
      <point x="644" y="454" type="line"/>
      <point x="609" y="421" type="line"/>
      <point x="571" y="449" smooth="yes"/>
      <point x="536" y="462" smooth="yes"/>
      <point x="502" y="462" type="curve" smooth="yes"/>
      <point x="378" y="462" smooth="yes"/>
      <point x="319" y="327" smooth="yes"/>
      <point x="319" y="221" type="curve" smooth="yes"/>
      <point x="319" y="131" smooth="yes"/>
      <point x="360" y="45" smooth="yes"/>
      <point x="446" y="45" type="curve" smooth="yes"/>
      <point x="490" y="45"/>
      <point x="538" y="76"/>
      <point x="565" y="132" type="curve"/>
      <point x="569" y="132" type="line"/>
      <point x="573" y="81" smooth="yes"/>
      <point x="612" y="40" smooth="yes"/>
    </contour>
    <contour>
      <point x="562" y="171" type="line"/>
      <point x="558" y="153"/>
      <point x="500" y="100"/>
      <point x="461" y="97" type="curve" name="hr01"/>
      <point x="412" y="111" smooth="yes"/>
      <point x="397" y="172" smooth="yes"/>
      <point x="397" y="232" type="curve" smooth="yes"/>
      <point x="397" y="342" smooth="yes"/>
      <point x="450" y="412" smooth="yes"/>
      <point x="505" y="412" type="curve" smooth="yes"/>
      <point x="540" y="412"/>
      <point x="576" y="400"/>
      <point x="597" y="383" type="curve"/>
    </contour>
  </outline>
</glyph>
<glyph name="C" format="1">
  <advance width="632"/>
  <unicode hex="0043"/>
  <outline>
    <contour>
      <point x="602" y="77" type="line" name="hr00"/>
      <point x="561" y="41" smooth="yes"/>
      <point x="484" y="23" smooth="yes"/>
      <point x="414" y="23" type="curve" smooth="yes"/>
      <point x="252" y="23" smooth="yes"/>
      <point x="134" y="128" smooth="yes"/>
      <point x="134" y="329" type="curve" smooth="yes"/>
      <point x="134" y="487"/>
      <point x="210" y="601"/>
      <point x="352" y="633" type="curve"/>
      <point x="439" y="633"/>
      <point x="504" y="606"/>
      <point x="576" y="576" type="curve"/>
      <point x="586" y="644" type="line"/>
      <point x="553" y="655" smooth="yes"/>
      <point x="475" y="674" smooth="yes"/>
      <point x="413" y="674" type="curve" smooth="yes"/>
      <point x="236" y="674" smooth="yes"/>
      <point x="28" y="569" smooth="yes"/>
      <point x="28" y="313" type="curve" smooth="yes"/>
      <point x="28" y="92" smooth="yes"/>
      <point x="202" y="-12" smooth="yes"/>
      <point x="395" y="-12" type="curve" smooth="yes"/>
      <point x="454" y="-12"/>
      <point x="541" y="-2"/>
      <point x="602" y="22" type="curve"/>
    </contour>
  </outline>
</glyph>
<glyph name="D" format="1">
  <advance width="708"/>
  <unicode hex="0044"/>
  <outline>
    <contour>
      <point x="90" y="662" type="line" name="hr00"/>
      <point x="90" y="0" type="line"/>
      <point x="298" y="0" type="line" smooth="yes"/>
      <point x="491" y="0" smooth="yes"/>
      <point x="665" y="92" smooth="yes"/>
      <point x="665" y="313" type="curve" smooth="yes"/>
      <point x="665" y="569" smooth="yes"/>
      <point x="457" y="662" smooth="yes"/>
      <point x="279" y="662" type="curve" smooth="yes"/>
    </contour>
    <contour>
      <point x="188" y="605" type="line"/>
      <point x="225" y="617"/>
      <point x="293" y="626"/>
      <point x="340" y="626" type="curve"/>
      <point x="465" y="593" smooth="yes"/>
      <point x="559" y="483" smooth="yes"/>
      <point x="559" y="329" type="curve" smooth="yes"/>
      <point x="559" y="128" smooth="yes"/>
      <point x="440" y="34" smooth="yes"/>
      <point x="278" y="34" type="curve" smooth="yes"/>
      <point x="246" y="34"/>
      <point x="206" y="38"/>
      <point x="188" y="43" type="curve"/>
    </contour>
  </outline>
</glyph>
<glyph name="H" format="1">
  <advance width="677"/>
  <unicode hex="0048"/>
  <outline>
    <contour>
      <point x="187" y="0" type="line" name="hr00"/>
      <point x="187" y="328" type="line"/>
      <point x="490" y="328" type="line"/>
      <point x="490" y="0" type="line"/>
      <point x="587" y="0" type="line"/>
      <point x="587" y="662" type="line"/>
      <point x="490" y="662" type="line"/>
      <point x="490" y="366" type="line"/>
      <point x="187" y="366" type="line"/>
      <point x="187" y="662" type="line"/>
      <point x="90" y="662" type="line"/>
      <point x="90" y="0" type="line"/>
    </contour>
  </outline>
</glyph>
<glyph name="K" format="1">
  <advance width="609"/>
  <unicode hex="004B"/>
  <outline>
    <contour>
      <point x="481" y="-13" type="line" name="hr00"/>
      <point x="609" y="0" type="line"/>
      <point x="254" y="354" type="line"/>
      <point x="567" y="662" type="line"/>
      <point x="501" y="662" type="line"/>
      <point x="192" y="336" type="line"/>
      <point x="192" y="662" type="line"/>
      <point x="90" y="662" type="line"/>
      <point x="90" y="0" type="line"/>
      <point x="192" y="0" type="line"/>
      <point x="192" y="326" type="line"/>
    </contour>
  </outline>
</glyph>
<glyph name="P" format="1">
  <advance width="546"/>
  <unicode hex="0050"/>
  <outline>
    <contour>
      <point x="535" y="490" type="curve" name="hr00"/>
      <point x="535" y="599" smooth="yes"/>
      <point x="436" y="662" smooth="yes"/>
      <point x="305" y="662" type="curve" smooth="yes"/>
      <point x="90" y="662" type="line"/>
      <point x="90" y="0" type="line"/>
      <point x="187" y="0" type="line"/>
      <point x="187" y="295" type="line"/>
      <point x="273" y="295" type="line" smooth="yes"/>
      <point x="429" y="295" smooth="yes"/>
      <point x="535" y="359" smooth="yes"/>
    </contour>
    <contour>
      <point x="187" y="324" type="line"/>
      <point x="187" y="609" type="line"/>
      <point x="220" y="618"/>
      <point x="280" y="626"/>
      <point x="321" y="626" type="curve"/>
      <point x="428" y="596" smooth="yes"/>
      <point x="432" y="500" smooth="yes"/>
      <point x="432" y="485" type="curve" smooth="yes"/>
      <point x="432" y="439" smooth="yes"/>
      <point x="411" y="324" smooth="yes"/>
      <point x="276" y="324" type="curve" smooth="yes"/>
    </contour>
  </outline>
</glyph>
<glyph name="W" format="1">
  <advance width="856"/>
  <unicode hex="0057"/>
  <outline>
    <contour>
      <point x="846" y="662" type="line" name="hr00"/>
      <point x="796" y="662" type="line"/>
      <point x="614" y="120" type="line"/>
      <point x="438" y="662" type="line"/>
      <point x="329" y="662" type="line"/>
      <point x="407" y="454" type="line"/>
      <point x="295" y="120" type="line"/>
      <point x="119" y="662" type="line"/>
      <point x="10" y="662" type="line"/>
      <point x="263" y="-15" type="line"/>
      <point x="279" y="-15" type="line"/>
      <point x="429" y="395" type="line"/>
      <point x="582" y="-15" type="line"/>
      <point x="598" y="-15" type="line"/>
    </contour>
  </outline>
</glyph>
<glyph name="X" format="1">
  <advance width="646"/>
  <unicode hex="0058"/>
  <outline>
    <contour>
      <point x="616" y="0" type="line" name="hr00"/>
      <point x="355" y="356" type="line"/>
      <point x="602" y="662" type="line"/>
      <point x="541" y="662" type="line"/>
      <point x="333" y="387" type="line"/>
      <point x="167" y="662" type="line"/>
      <point x="42" y="662" type="line"/>
      <point x="280" y="321" type="line"/>
      <point x="30" y="0" type="line"/>
      <point x="91" y="0" type="line"/>
      <point x="303" y="292" type="line"/>
      <point x="491" y="0" type="line"/>
    </contour>
  </outline>
</glyph>
<glyph name="bracketleft" format="1">
  <advance width="333"/>
  <unicode hex="005B"/>
  <outline>
    <contour>
      <point x="164" y="608" type="line" name="hr00"/>
      <point x="299" y="636" type="line"/>
      <point x="299" y="662" type="line"/>
      <point x="88" y="646" type="line"/>
      <point x="88" y="-140" type="line"/>
      <point x="299" y="-156" type="line"/>
      <point x="299" y="-131" type="line"/>
      <point x="164" y="-102" type="line"/>
    </contour>
  </outline>
</glyph>
<glyph name="underscore" format="1">
  <advance width="500"/>
  <unicode hex="005F"/>
  <outline>
    <contour>
      <point x="500" y="-75" type="line" name="hr00"/>
      <point x="0" y="-75" type="line"/>
      <point x="0" y="-125" type="line"/>
      <point x="500" y="-125" type="line"/>
    </contour>
  </outline>
</glyph>
<glyph name="d" format="1">
  <advance width="500"/>
  <unicode hex="0064"/>
  <outline>
    <contour>
      <point x="424" y="683" type="line"/>
      <point x="339" y="683" type="line"/>
      <point x="339" y="417" type="line"/>
      <point x="288" y="449" smooth="yes"/>
      <point x="243" y="463" smooth="yes"/>
      <point x="204" y="463" type="curve" smooth="yes"/>
      <point x="84" y="463" smooth="yes"/>
      <point x="26" y="332" smooth="yes"/>
      <point x="26" y="227" type="curve" smooth="yes"/>
      <point x="26" y="26" smooth="yes"/>
      <point x="137" y="-12" smooth="yes"/>
      <point x="196" y="-12" type="curve" smooth="yes"/>
      <point x="255" y="-12"/>
      <point x="293" y="14"/>
      <point x="342" y="60" type="curve"/>
      <point x="424" y="-13" type="line" name="hr01"/>
      <point x="475" y="24" type="line"/>
      <point x="459" y="37"/>
      <point x="424" y="65"/>
      <point x="424" y="134" type="curve"/>
    </contour>
    <contour>
      <point x="203" y="33" type="curve" name="hr02"/>
      <point x="156" y="45" smooth="yes"/>
      <point x="114" y="110" smooth="yes"/>
      <point x="114" y="223" type="curve" smooth="yes"/>
      <point x="114" y="330" smooth="yes"/>
      <point x="162" y="415" smooth="yes"/>
      <point x="242" y="415" type="curve" smooth="yes"/>
      <point x="270" y="415"/>
      <point x="303" y="404"/>
      <point x="339" y="380" type="curve"/>
      <point x="339" y="101" type="line" smooth="yes"/>
      <point x="339" y="87"/>
      <point x="280" y="39"/>
    </contour>
  </outline>
</glyph>
<glyph name="g" format="1">
  <advance width="490"/>
  <unicode hex="0067"/>
  <outline>
    <contour>
      <point x="253" y="57" type="curve"/>
      <point x="175" y="57" smooth="yes"/>
      <point x="132" y="62" smooth="yes"/>
      <point x="132" y="91" type="curve" smooth="yes"/>
      <point x="132" y="117"/>
      <point x="167" y="142"/>
      <point x="186" y="148" type="curve"/>
      <point x="195" y="147" smooth="yes"/>
      <point x="204" y="146" smooth="yes"/>
      <point x="214" y="146" type="curve" smooth="yes"/>
      <point x="292" y="146" smooth="yes"/>
      <point x="398" y="187" smooth="yes"/>
      <point x="398" y="312" type="curve" smooth="yes"/>
      <point x="398" y="342"/>
      <point x="391" y="367"/>
      <point x="379" y="388" type="curve"/>
      <point x="441" y="419" type="line"/>
      <point x="421" y="462" type="line"/>
      <point x="333" y="437" type="line"/>
      <point x="308" y="452" smooth="yes"/>
      <point x="273" y="464" smooth="yes"/>
      <point x="239" y="464" type="curve" smooth="yes"/>
      <point x="161" y="464" smooth="yes"/>
      <point x="59" y="419" smooth="yes"/>
      <point x="59" y="295" type="curve" smooth="yes"/>
      <point x="59" y="231"/>
      <point x="90" y="187"/>
      <point x="134" y="164" type="curve"/>
      <point x="92" y="132" smooth="yes"/>
      <point x="62" y="97" smooth="yes"/>
      <point x="62" y="64" type="curve" smooth="yes"/>
      <point x="62" y="30"/>
      <point x="79" y="10"/>
      <point x="108" y="-1" type="curve"/>
      <point x="45" y="-29" smooth="yes"/>
      <point x="26" y="-73" smooth="yes"/>
      <point x="26" y="-112" type="curve" smooth="yes" name="hr01"/>
      <point x="26" y="-186" smooth="yes"/>
      <point x="102" y="-222" smooth="yes"/>
      <point x="199" y="-222" type="curve" smooth="yes"/>
      <point x="344" y="-222" smooth="yes"/>
      <point x="449" y="-124" smooth="yes"/>
      <point x="449" y="-29" type="curve" smooth="yes"/>
      <point x="449" y="42" smooth="yes"/>
      <point x="372" y="57" smooth="yes"/>
    </contour>
    <contour>
      <point x="227" y="431" type="curve"/>
      <point x="277" y="431" smooth="yes"/>
      <point x="319" y="371" smooth="yes"/>
      <point x="319" y="302" type="curve" smooth="yes"/>
      <point x="319" y="220" smooth="yes"/>
      <point x="288" y="177" smooth="yes"/>
      <point x="227" y="177" type="curve" smooth="yes"/>
      <point x="176" y="177" smooth="yes"/>
      <point x="135" y="233" smooth="yes"/>
      <point x="135" y="302" type="curve" smooth="yes" name="hr02"/>
      <point x="135" y="379" smooth="yes"/>
      <point x="167" y="431" smooth="yes"/>
    </contour>
    <contour>
      <point x="215" y="-176" type="curve"/>
      <point x="134" y="-176" smooth="yes"/>
      <point x="101" y="-140" smooth="yes"/>
      <point x="101" y="-95" type="curve" smooth="yes" name="hr03"/>
      <point x="101" y="-60"/>
      <point x="126" y="-27"/>
      <point x="145" y="-11" type="curve"/>
      <point x="174" y="-16" smooth="yes"/>
      <point x="211" y="-17" smooth="yes"/>
      <point x="254" y="-17" type="curve" smooth="yes"/>
      <point x="299" y="-17"/>
      <point x="373" y="-21"/>
      <point x="414" y="-38" type="curve"/>
      <point x="414" y="-93" smooth="yes"/>
      <point x="334" y="-176" smooth="yes"/>
    </contour>
  </outline>
</glyph>
<glyph name="k" format="1">
  <advance width="493"/>
  <unicode hex="006B"/>
  <outline>
    <contour>
      <point x="371" y="-13" type="line" name="hr00"/>
      <point x="471" y="0" type="line"/>
      <point x="221" y="274" type="line"/>
      <point x="456" y="452" type="line"/>
      <point x="390" y="452" type="line"/>
      <point x="159" y="260" type="line"/>
      <point x="159" y="683" type="line"/>
      <point x="75" y="683" type="line"/>
      <point x="75" y="0" type="line"/>
      <point x="159" y="0" type="line"/>
      <point x="159" y="251" type="line"/>
    </contour>
  </outline>
</glyph>
<glyph name="m" format="1">
  <advance width="778"/>
  <unicode hex="006D"/>
  <outline>
    <contour>
      <point x="588" y="464" type="curve" name="hr00"/>
      <point x="508" y="464"/>
      <point x="447" y="407"/>
      <point x="426" y="383" type="curve"/>
      <point x="415" y="425" smooth="yes"/>
      <point x="384" y="464" smooth="yes"/>
      <point x="318" y="464" type="curve" smooth="yes"/>
      <point x="264" y="464"/>
      <point x="220" y="436"/>
      <point x="163" y="388" type="curve"/>
      <point x="83" y="461" type="line"/>
      <point x="32" y="423" type="line"/>
      <point x="48" y="410" smooth="yes"/>
      <point x="83" y="383" smooth="yes"/>
      <point x="83" y="314" type="curve" smooth="yes"/>
      <point x="83" y="0" type="line"/>
      <point x="167" y="0" type="line"/>
      <point x="167" y="345" type="line" smooth="yes"/>
      <point x="167" y="350" smooth="yes"/>
      <point x="228" y="404" smooth="yes"/>
      <point x="283" y="404" type="curve" smooth="yes"/>
      <point x="335" y="404" smooth="yes"/>
      <point x="352" y="365" smooth="yes"/>
      <point x="352" y="298" type="curve" smooth="yes"/>
      <point x="352" y="0" type="line"/>
      <point x="437" y="0" type="line"/>
      <point x="437" y="347" type="line"/>
      <point x="456" y="376" smooth="yes"/>
      <point x="506" y="404" smooth="yes"/>
      <point x="548" y="404" type="curve" smooth="yes"/>
      <point x="621" y="404" smooth="yes"/>
      <point x="622" y="345" smooth="yes"/>
      <point x="622" y="293" type="curve" smooth="yes"/>
      <point x="622" y="0" type="line"/>
      <point x="706" y="0" type="line"/>
      <point x="706" y="285" type="line" smooth="yes"/>
      <point x="706" y="360" smooth="yes"/>
      <point x="692" y="464" smooth="yes"/>
    </contour>
  </outline>
</glyph>
<glyph name="q" format="1">
  <advance width="500"/>
  <unicode hex="0071"/>
  <outline>
    <contour>
      <point x="425" y="462" type="line" name="hr00"/>
      <point x="371" y="423" type="line"/>
      <point x="329" y="450" smooth="yes"/>
      <point x="285" y="464" smooth="yes"/>
      <point x="245" y="464" type="curve" smooth="yes"/>
      <point x="122" y="464" smooth="yes"/>
      <point x="22" y="354" smooth="yes"/>
      <point x="22" y="217" type="curve" smooth="yes"/>
      <point x="22" y="60" smooth="yes"/>
      <point x="103" y="-17" smooth="yes"/>
      <point x="193" y="-17" type="curve" smooth="yes"/>
      <point x="243" y="-17"/>
      <point x="297" y="7"/>
      <point x="341" y="56" type="curve"/>
      <point x="341" y="-212" type="line"/>
      <point x="425" y="-212" type="line"/>
    </contour>
    <contour>
      <point x="204" y="29" type="curve"/>
      <point x="147" y="43" smooth="yes"/>
      <point x="108" y="116" smooth="yes"/>
      <point x="108" y="233" type="curve" smooth="yes"/>
      <point x="108" y="341" smooth="yes"/>
      <point x="165" y="413" smooth="yes"/>
      <point x="248" y="413" type="curve" smooth="yes"/>
      <point x="294" y="413"/>
      <point x="335" y="399"/>
      <point x="341" y="395" type="curve"/>
      <point x="341" y="105" type="line" smooth="yes"/>
      <point x="341" y="91"/>
      <point x="282" y="35"/>
    </contour>
  </outline>
</glyph>
<glyph name="u" format="1">
  <advance width="480"/>
  <unicode hex="0075"/>
  <outline>
    <contour>
      <point x="397" y="452" type="line" name="hr00"/>
      <point x="312" y="452" type="line"/>
      <point x="312" y="99" type="line"/>
      <point x="280" y="61" smooth="yes"/>
      <point x="243" y="35" smooth="yes"/>
      <point x="213" y="35" type="curve" smooth="yes"/>
      <point x="154" y="35"/>
      <point x="136" y="71"/>
      <point x="136" y="132" type="curve"/>
      <point x="136" y="452" type="line"/>
      <point x="51" y="452" type="line"/>
      <point x="51" y="137" type="line"/>
      <point x="51" y="14" smooth="yes"/>
      <point x="123" y="-12" smooth="yes"/>
      <point x="169" y="-12" type="curve" smooth="yes"/>
      <point x="228" y="-12"/>
      <point x="266" y="14"/>
      <point x="316" y="61" type="curve"/>
      <point x="397" y="-12" type="line"/>
      <point x="449" y="25" type="line"/>
      <point x="432" y="38"/>
      <point x="397" y="66"/>
      <point x="397" y="134" type="curve"/>
    </contour>
  </outline>
</glyph>
<glyph name="v" format="1">
  <advance width="415"/>
  <unicode hex="0076"/>
  <outline>
    <contour>
      <point x="206" y="-13" type="line" name="hr00"/>
      <point x="221" y="-13" type="line"/>
      <point x="405" y="452" type="line"/>
      <point x="367" y="452" type="line"/>
      <point x="236" y="102" type="line"/>
      <point x="98" y="452" type="line"/>
      <point x="10" y="452" type="line"/>
    </contour>
  </outline>
</glyph>
<glyph name="w" format="1">
  <advance width="684"/>
  <unicode hex="0077"/>
  <outline>
    <contour>
      <point x="235" y="99" type="line" name="hr00"/>
      <point x="102" y="452" type="line"/>
      <point x="10" y="452" type="line"/>
      <point x="205" y="-13" type="line"/>
      <point x="220" y="-13" type="line"/>
      <point x="343" y="299" type="line"/>
      <point x="475" y="-13" type="line"/>
      <point x="491" y="-13" type="line"/>
      <point x="674" y="452" type="line"/>
      <point x="635" y="452" type="line"/>
      <point x="505" y="99" type="line"/>
      <point x="372" y="452" type="line"/>
      <point x="280" y="452" type="line"/>
      <point x="325" y="345" type="line"/>
    </contour>
  </outline>
</glyph>
<glyph name="y" format="1">
  <advance width="441"/>
  <unicode hex="0079"/>
  <outline>
    <contour>
      <point x="420" y="452" type="line" name="hr00"/>
      <point x="382" y="452" type="line"/>
      <point x="264" y="113" type="line"/>
      <point x="111" y="452" type="line"/>
      <point x="22" y="452" type="line"/>
      <point x="225" y="5" type="line"/>
      <point x="190" y="-66"/>
      <point x="131" y="-144"/>
      <point x="19" y="-147" type="curve"/>
      <point x="5" y="-220" type="line"/>
      <point x="111" y="-219" smooth="yes"/>
      <point x="205" y="-136" smooth="yes"/>
      <point x="249" y="-15" type="curve" smooth="yes"/>
    </contour>
  </outline>
</glyph>
<glyph name="z" format="1">
  <advance width="444"/>
  <unicode hex="007A"/>
  <outline>
    <contour>
      <point x="45" y="30" type="line" name="hr00"/>
      <point x="45" y="0" type="line"/>
      <point x="416" y="0" type="line"/>
      <point x="406" y="47" type="line"/>
      <point x="137" y="36" type="line"/>
      <point x="403" y="424" type="line"/>
      <point x="403" y="452" type="line"/>
      <point x="56" y="452" type="line"/>
      <point x="66" y="410" type="line"/>
      <point x="312" y="419" type="line"/>
    </contour>
  </outline>
</glyph>
<glyph name="yen" format="1">
  <advance width="500"/>
  <unicode hex="00A5"/>
  <outline>
    <contour>
      <point x="363" y="368" type="line" name="hr00"/>
      <point x="488" y="661" type="line"/>
      <point x="438" y="661" type="line"/>
      <point x="285" y="282" type="line"/>
      <point x="120" y="661" type="line"/>
      <point x="11" y="661" type="line"/>
      <point x="156" y="368" type="line"/>
      <point x="57" y="368" type="line"/>
      <point x="57" y="330" type="line"/>
      <point x="175" y="330" type="line"/>
      <point x="217" y="246" type="line"/>
      <point x="217" y="243" type="line"/>
      <point x="57" y="243" type="line"/>
      <point x="57" y="204" type="line"/>
      <point x="217" y="204" type="line"/>
      <point x="217" y="0" type="line"/>
      <point x="314" y="0" type="line"/>
      <point x="314" y="204" type="line"/>
      <point x="474" y="204" type="line"/>
      <point x="474" y="243" type="line"/>
      <point x="314" y="243" type="line"/>
      <point x="314" y="251" type="line"/>
      <point x="347" y="330" type="line"/>
      <point x="474" y="330" type="line"/>
      <point x="474" y="368" type="line"/>
    </contour>
  </outline>
</glyph>
<glyph name="copyright" format="1">
  <advance width="760"/>
  <unicode hex="00A9"/>
  <outline>
    <contour>
      <point x="382" y="677" type="curve" name="hr00"/>
      <point x="188" y="677" smooth="yes"/>
      <point x="38" y="521" smooth="yes"/>
      <point x="38" y="330" type="curve" smooth="yes"/>
      <point x="38" y="139" smooth="yes"/>
      <point x="188" y="-14" smooth="yes"/>
      <point x="382" y="-14" type="curve" smooth="yes"/>
      <point x="573" y="-14" smooth="yes"/>
      <point x="722" y="139" smooth="yes"/>
      <point x="722" y="330" type="curve" smooth="yes"/>
      <point x="722" y="521" smooth="yes"/>
      <point x="573" y="677" smooth="yes"/>
    </contour>
    <contour>
      <point x="382" y="634" type="curve"/>
      <point x="542" y="634" smooth="yes"/>
      <point x="667" y="492" smooth="yes"/>
      <point x="667" y="330" type="curve" smooth="yes"/>
      <point x="667" y="170" smooth="yes"/>
      <point x="540" y="28" smooth="yes"/>
      <point x="382" y="28" type="curve" smooth="yes"/>
      <point x="220" y="28" smooth="yes"/>
      <point x="93" y="170" smooth="yes"/>
      <point x="93" y="330" type="curve" smooth="yes"/>
      <point x="93" y="491" smooth="yes"/>
      <point x="219" y="634" smooth="yes"/>
    </contour>
    <contour>
      <point x="534" y="188" type="line"/>
      <point x="502" y="158" smooth="yes"/>
      <point x="451" y="144" smooth="yes"/>
      <point x="408" y="144" type="curve" smooth="yes"/>
      <point x="309" y="144" smooth="yes"/>
      <point x="236" y="210" smooth="yes"/>
      <point x="236" y="333" type="curve" smooth="yes"/>
      <point x="236" y="428"/>
      <point x="286" y="501"/>
      <point x="369" y="521" type="curve"/>
      <point x="418" y="519"/>
      <point x="469" y="502"/>
      <point x="516" y="482" type="curve"/>
      <point x="525" y="541" type="line"/>
      <point x="502" y="549" smooth="yes"/>
      <point x="449" y="562" smooth="yes"/>
      <point x="407" y="562" type="curve" smooth="yes"/>
      <point x="291" y="562" smooth="yes"/>
      <point x="155" y="491" smooth="yes"/>
      <point x="155" y="323" type="curve" smooth="yes"/>
      <point x="155" y="178" smooth="yes"/>
      <point x="268" y="108" smooth="yes"/>
      <point x="396" y="108" type="curve" smooth="yes"/>
      <point x="433" y="108"/>
      <point x="491" y="114"/>
      <point x="534" y="137" type="curve"/>
    </contour>
  </outline>
</glyph>
<glyph name="degree" format="1">
  <advance width="400"/>
  <unicode hex="00B0"/>
  <outline>
    <contour>
      <point x="200" y="424" type="curve" name="hr00"/>
      <point x="142" y="424" smooth="yes"/>
      <point x="96" y="475" smooth="yes"/>
      <point x="96" y="533" type="curve" smooth="yes"/>
      <point x="96" y="591" smooth="yes"/>
      <point x="142" y="642" smooth="yes"/>
      <point x="200" y="642" type="curve" smooth="yes"/>
      <point x="258" y="642" smooth="yes"/>
      <point x="304" y="591" smooth="yes"/>
      <point x="304" y="533" type="curve" smooth="yes"/>
      <point x="304" y="475" smooth="yes"/>
      <point x="258" y="424" smooth="yes"/>
    </contour>
    <contour>
      <point x="200" y="390" type="curve"/>
      <point x="280" y="390" smooth="yes"/>
      <point x="343" y="453" smooth="yes"/>
      <point x="343" y="533" type="curve" smooth="yes"/>
      <point x="343" y="613" smooth="yes"/>
      <point x="280" y="677" smooth="yes"/>
      <point x="200" y="677" type="curve" smooth="yes"/>
      <point x="120" y="677" smooth="yes"/>
      <point x="57" y="613" smooth="yes"/>
      <point x="57" y="533" type="curve" smooth="yes"/>
      <point x="57" y="453" smooth="yes"/>
      <point x="120" y="390" smooth="yes"/>
    </contour>
  </outline>
</glyph>
<glyph name="threesuperior" format="1">
  <advance width="300"/>
  <unicode hex="00B3"/>
  <outline>
    <contour>
      <point x="242" y="574" type="curve"/>
      <point x="242" y="641" smooth="yes"/>
      <point x="185" y="677" smooth="yes"/>
      <point x="109" y="677" type="curve" smooth="yes"/>
      <point x="84" y="677"/>
      <point x="50" y="669"/>
      <point x="32" y="664" type="curve"/>
      <point x="32" y="616" type="line"/>
      <point x="67" y="627"/>
      <point x="102" y="635"/>
      <point x="130" y="635" type="curve"/>
      <point x="174" y="617" smooth="yes"/>
      <point x="179" y="583" smooth="yes"/>
      <point x="179" y="571" type="curve" smooth="yes"/>
      <point x="179" y="532"/>
      <point x="156" y="496"/>
      <point x="70" y="491" type="curve"/>
      <point x="71" y="466" type="line"/>
      <point x="165" y="466" smooth="yes"/>
      <point x="196" y="424" smooth="yes"/>
      <point x="196" y="383" type="curve" smooth="yes" name="hr01"/>
      <point x="196" y="328" smooth="yes"/>
      <point x="158" y="303" smooth="yes"/>
      <point x="113" y="303" type="curve" smooth="yes"/>
      <point x="86" y="303" smooth="yes"/>
      <point x="61" y="311" smooth="yes"/>
      <point x="45" y="317" type="curve" smooth="yes"/>
      <point x="39" y="319"/>
      <point x="35" y="321"/>
      <point x="32" y="322" type="curve"/>
      <point x="32" y="285" type="line"/>
      <point x="59" y="274" smooth="yes"/>
      <point x="85" y="265" smooth="yes"/>
      <point x="126" y="265" type="curve" smooth="yes"/>
      <point x="178" y="265" smooth="yes"/>
      <point x="262" y="304" smooth="yes"/>
      <point x="262" y="387" type="curve" smooth="yes"/>
      <point x="262" y="427"/>
      <point x="233" y="466"/>
      <point x="173" y="483" type="curve"/>
      <point x="216" y="502"/>
      <point x="242" y="533"/>
    </contour>
  </outline>
</glyph>
<glyph name="periodcentered" format="1">
  <advance width="250"/>
  <unicode hex="00B7"/>
  <outline>
    <contour>
      <point x="125" y="199" type="curve" name="hr00"/>
      <point x="146" y="199" smooth="yes"/>
      <point x="181" y="216" smooth="yes"/>
      <point x="181" y="253" type="curve" smooth="yes"/>
      <point x="181" y="284" smooth="yes"/>
      <point x="155" y="310" smooth="yes"/>
      <point x="125" y="310" type="curve" smooth="yes"/>
      <point x="95" y="310" smooth="yes"/>
      <point x="70" y="285" smooth="yes"/>
      <point x="70" y="253" type="curve" smooth="yes"/>
      <point x="70" y="215" smooth="yes"/>
      <point x="104" y="199" smooth="yes"/>
    </contour>
  </outline>
</glyph>
<glyph name="multiply" format="1">
  <advance width="564"/>
  <unicode hex="00D7"/>
  <outline>
    <contour>
      <point x="66" y="427" type="line" name="hr00"/>
      <point x="240" y="253" type="line"/>
      <point x="66" y="78" type="line"/>
      <point x="108" y="36" type="line"/>
      <point x="282" y="210" type="line"/>
      <point x="457" y="36" type="line"/>
      <point x="499" y="78" type="line"/>
      <point x="325" y="253" type="line"/>
      <point x="499" y="427" type="line"/>
      <point x="457" y="469" type="line"/>
      <point x="282" y="295" type="line"/>
      <point x="108" y="469" type="line"/>
    </contour>
  </outline>
</glyph>
<glyph name="Thorn" format="1">
  <advance width="556"/>
  <unicode hex="00DE"/>
  <outline>
    <contour>
      <point x="187" y="194" type="line" name="hr00"/>
      <point x="187" y="479" type="line"/>
      <point x="220" y="488"/>
      <point x="280" y="496"/>
      <point x="321" y="496" type="curve"/>
      <point x="428" y="466" smooth="yes"/>
      <point x="432" y="370" smooth="yes"/>
      <point x="432" y="355" type="curve" smooth="yes"/>
      <point x="432" y="309" smooth="yes"/>
      <point x="411" y="194" smooth="yes"/>
      <point x="276" y="194" type="curve" smooth="yes"/>
    </contour>
    <contour>
      <point x="187" y="532" type="line"/>
      <point x="187" y="662" type="line"/>
      <point x="90" y="662" type="line"/>
      <point x="90" y="0" type="line"/>
      <point x="187" y="0" type="line"/>
      <point x="187" y="165" type="line"/>
      <point x="273" y="165" type="line" smooth="yes"/>
      <point x="429" y="165" smooth="yes"/>
      <point x="535" y="229" smooth="yes"/>
      <point x="535" y="360" type="curve" smooth="yes"/>
      <point x="535" y="469" smooth="yes"/>
      <point x="436" y="532" smooth="yes"/>
      <point x="305" y="532" type="curve" smooth="yes"/>
    </contour>
  </outline>
</glyph>
<glyph name="kgreenlandic" format="1">
  <advance width="451"/>
  <unicode hex="0138"/>
  <outline>
    <contour>
      <point x="346" y="-13" type="line" name="hr00"/>
      <point x="441" y="0" type="line"/>
      <point x="241" y="254" type="line"/>
      <point x="436" y="452" type="line"/>
      <point x="360" y="452" type="line"/>
      <point x="159" y="240" type="line"/>
      <point x="159" y="452" type="line"/>
      <point x="75" y="452" type="line"/>
      <point x="75" y="0" type="line"/>
      <point x="159" y="0" type="line"/>
      <point x="159" y="231" type="line"/>
    </contour>
  </outline>
</glyph>
<glyph name="dotlessj" format="1">
  <advance width="235"/>
  <unicode hex="0237"/>
  <outline>
    <contour>
      <point x="9" y="-176" type="curve" name="hr00"/>
      <point x="-14" y="-176"/>
      <point x="-69" y="-162"/>
      <point x="-100" y="-146" type="curve"/>
      <point x="-110" y="-211" type="line"/>
      <point x="-86" y="-217" smooth="yes"/>
      <point x="-58" y="-223" smooth="yes"/>
      <point x="-34" y="-223" type="curve" smooth="yes"/>
      <point x="84" y="-223" smooth="yes"/>
      <point x="159" y="-119" smooth="yes"/>
      <point x="159" y="17" type="curve" smooth="yes"/>
      <point x="160" y="452" type="line"/>
      <point x="75" y="452" type="line"/>
      <point x="75" y="17" type="line" smooth="yes"/>
      <point x="75" y="-36"/>
      <point x="60" y="-150"/>
    </contour>
  </outline>
</glyph>
<glyph name="quoteleft" format="1">
  <advance width="224"/>
  <unicode hex="2018"/>
  <outline>
    <contour>
      <point x="64" y="433" type="curve" name="hr00"/>
      <point x="103" y="437"/>
      <point x="150" y="462"/>
      <point x="169" y="490" type="curve"/>
      <point x="169" y="526"/>
      <point x="135" y="545"/>
      <point x="107" y="545" type="curve"/>
      <point x="107" y="588"/>
      <point x="135" y="633"/>
      <point x="174" y="664" type="curve"/>
      <point x="162" y="683" type="line"/>
      <point x="101" y="649" smooth="yes"/>
      <point x="50" y="596" smooth="yes"/>
      <point x="50" y="513" type="curve" smooth="yes"/>
      <point x="50" y="489"/>
      <point x="54" y="462"/>
    </contour>
  </outline>
</glyph>
<glyph name="guilsinglright" format="1">
  <advance width="333"/>
  <unicode hex="203A"/>
  <outline>
    <contour>
      <point x="270" y="221" type="line" name="hr00"/>
      <point x="59" y="415" type="line"/>
      <point x="53" y="415" smooth="yes"/>
      <point x="48" y="411" smooth="yes"/>
      <point x="48" y="404" type="curve" smooth="yes"/>
      <point x="177" y="223" type="line"/>
      <point x="49" y="43" type="line"/>
      <point x="49" y="36" smooth="yes"/>
      <point x="51" y="32" smooth="yes"/>
      <point x="59" y="32" type="curve" smooth="yes"/>
    </contour>
  </outline>
</glyph>
<glyph name="fraction" format="1">
  <advance width="799"/>
  <unicode hex="2044"/>
  <outline>
    <contour>
      <point x="249" y="-14" type="line" name="hr00"/>
      <point x="599" y="677" type="line"/>
      <point x="553" y="677" type="line"/>
      <point x="200" y="-14" type="line"/>
    </contour>
  </outline>
</glyph>
<glyph name="summation" format="1">
  <advance width="600"/>
  <unicode hex="2211"/>
  <outline>
    <contour>
      <point x="81" y="-100" type="line" name="hr00"/>
      <point x="520" y="-100" type="line"/>
      <point x="520" y="-46" type="line"/>
      <point x="181" y="-46" type="line"/>
      <point x="402" y="300" type="line"/>
      <point x="227" y="608" type="line"/>
      <point x="510" y="608" type="line"/>
      <point x="510" y="662" type="line"/>
      <point x="91" y="662" type="line"/>
      <point x="314" y="267" type="line"/>
    </contour>
  </outline>
</glyph>
<glyph name="infinity" format="1">
  <advance width="869"/>
  <unicode hex="221E"/>
  <outline>
    <contour>
      <point x="434" y="301" type="line" name="hr00"/>
      <point x="374" y="376" type="line" smooth="yes"/>
      <point x="318" y="447" smooth="yes"/>
      <point x="255" y="451" smooth="yes"/>
      <point x="221" y="451" type="curve" smooth="yes"/>
      <point x="107" y="451" smooth="yes"/>
      <point x="50" y="352" smooth="yes"/>
      <point x="50" y="253" type="curve" smooth="yes"/>
      <point x="50" y="154" smooth="yes"/>
      <point x="107" y="55" smooth="yes"/>
      <point x="221" y="55" type="curve" smooth="yes"/>
      <point x="255" y="55" smooth="yes"/>
      <point x="319" y="58" smooth="yes"/>
      <point x="375" y="129" type="curve" smooth="yes"/>
      <point x="434" y="204" type="line"/>
      <point x="494" y="129" type="line" smooth="yes"/>
      <point x="550" y="58" smooth="yes"/>
      <point x="614" y="55" smooth="yes"/>
      <point x="648" y="55" type="curve" smooth="yes"/>
      <point x="762" y="55" smooth="yes"/>
      <point x="819" y="154" smooth="yes"/>
      <point x="819" y="253" type="curve" smooth="yes"/>
      <point x="819" y="352" smooth="yes"/>
      <point x="762" y="451" smooth="yes"/>
      <point x="648" y="451" type="curve" smooth="yes"/>
      <point x="614" y="451" smooth="yes"/>
      <point x="551" y="447" smooth="yes"/>
      <point x="495" y="376" type="curve" smooth="yes"/>
    </contour>
    <contour>
      <point x="400" y="253" type="line"/>
      <point x="329" y="165" type="line" smooth="yes"/>
      <point x="291" y="117" smooth="yes"/>
      <point x="245" y="113" smooth="yes"/>
      <point x="221" y="113" type="curve" smooth="yes"/>
      <point x="146" y="113" smooth="yes"/>
      <point x="108" y="183" smooth="yes"/>
      <point x="108" y="253" type="curve" smooth="yes"/>
      <point x="108" y="323" smooth="yes"/>
      <point x="146" y="393" smooth="yes"/>
      <point x="221" y="393" type="curve" smooth="yes"/>
      <point x="244" y="393" smooth="yes"/>
      <point x="286" y="389" smooth="yes"/>
      <point x="328" y="339" type="curve" smooth="yes"/>
    </contour>
    <contour>
      <point x="469" y="253" type="line"/>
      <point x="541" y="339" type="line" smooth="yes"/>
      <point x="583" y="389" smooth="yes"/>
      <point x="625" y="393" smooth="yes"/>
      <point x="648" y="393" type="curve" smooth="yes"/>
      <point x="723" y="393" smooth="yes"/>
      <point x="761" y="323" smooth="yes"/>
      <point x="761" y="253" type="curve" smooth="yes"/>
      <point x="761" y="183" smooth="yes"/>
      <point x="723" y="113" smooth="yes"/>
      <point x="648" y="113" type="curve" smooth="yes"/>
      <point x="624" y="113" smooth="yes"/>
      <point x="578" y="117" smooth="yes"/>
      <point x="540" y="165" type="curve" smooth="yes"/>
    </contour>
  </outline>
</glyph>
<glyph name="caron.salt" format="1">
  <advance width="235"/>
  <outline>
    <contour>
      <point x="161" y="718" type="curve" name="hr00"/>
      <point x="122" y="714"/>
      <point x="75" y="689"/>
      <point x="56" y="661" type="curve"/>
      <point x="56" y="625"/>
      <point x="90" y="606"/>
      <point x="118" y="606" type="curve"/>
      <point x="118" y="563"/>
      <point x="90" y="518"/>
      <point x="51" y="487" type="curve"/>
      <point x="63" y="468" type="line"/>
      <point x="124" y="502" smooth="yes"/>
      <point x="175" y="555" smooth="yes"/>
      <point x="175" y="638" type="curve" smooth="yes"/>
      <point x="175" y="662"/>
      <point x="171" y="689"/>
    </contour>
  </outline>
</glyph>
<glyph name="dieresis.case" format="1">
  <advance width="333"/>
  <outline>
    <contour>
      <point x="215" y="591" type="curve" name="hr00"/>
      <point x="215" y="563" smooth="yes"/>
      <point x="237" y="541" smooth="yes"/>
      <point x="265" y="541" type="curve" smooth="yes"/>
      <point x="293" y="541" smooth="yes"/>
      <point x="315" y="563" smooth="yes"/>
      <point x="315" y="591" type="curve" smooth="yes"/>
      <point x="315" y="619" smooth="yes"/>
      <point x="293" y="641" smooth="yes"/>
      <point x="265" y="641" type="curve" smooth="yes"/>
      <point x="237" y="641" smooth="yes"/>
      <point x="215" y="619" smooth="yes"/>
    </contour>
    <contour>
      <point x="18" y="591" type="curve" smooth="yes"/>
      <point x="18" y="563" smooth="yes"/>
      <point x="40" y="541" smooth="yes"/>
      <point x="68" y="541" type="curve" smooth="yes"/>
      <point x="96" y="541" smooth="yes"/>
      <point x="118" y="563" smooth="yes"/>
      <point x="118" y="591" type="curve" smooth="yes"/>
      <point x="118" y="619" smooth="yes"/>
      <point x="96" y="641" smooth="yes"/>
      <point x="68" y="641" type="curve" smooth="yes"/>
      <point x="40" y="641" smooth="yes"/>
      <point x="18" y="619" smooth="yes"/>
    </contour>
  </outline>
</glyph>
<glyph name="ethbar" format="1">
  <advance width="390"/>
  <outline>
    <contour>
      <point x="390" y="374" type="line" name="hr00"/>
      <point x="0" y="374" type="line"/>
      <point x="0" y="325" type="line"/>
      <point x="390" y="325" type="line"/>
    </contour>
  </outline>
</glyph>
<glyph name="ring.case" format="1">
  <advance width="333"/>
  <outline>
    <contour>
      <point x="67" y="611" type="curve" name="hr00"/>
      <point x="67" y="557" smooth="yes"/>
      <point x="109" y="512" smooth="yes"/>
      <point x="166" y="512" type="curve" smooth="yes"/>
      <point x="221" y="512" smooth="yes"/>
      <point x="266" y="556" smooth="yes"/>
      <point x="266" y="611" type="curve" smooth="yes"/>
      <point x="266" y="666" smooth="yes"/>
      <point x="221" y="711" smooth="yes"/>
      <point x="166" y="711" type="curve" smooth="yes"/>
      <point x="110" y="711"/>
      <point x="67" y="665"/>
    </contour>
    <contour>
      <point x="166" y="677" type="curve"/>
      <point x="203" y="677" smooth="yes"/>
      <point x="232" y="647" smooth="yes"/>
      <point x="232" y="611" type="curve" smooth="yes"/>
      <point x="232" y="575" smooth="yes"/>
      <point x="203" y="546" smooth="yes"/>
      <point x="165" y="546" type="curve" smooth="yes"/>
      <point x="120" y="546" smooth="yes"/>
      <point x="101" y="587" smooth="yes"/>
      <point x="101" y="612" type="curve" smooth="yes"/>
      <point x="101" y="636"/>
      <point x="121" y="677"/>
    </contour>
  </outline>
</glyph>
